# xmcd
#
# Track frame offsets: 
#        183
#        21733
#        40353
#        54700
#        83728
#        99183
#        117050
#        141773
#        165745
#        187120
#        203963
#        225703
#
# Disc length: 3248 seconds
#
# Revision: 23
# Processed by: cddbd v1.5.2PL0 Copyright (c) Steve Scherf et al.
# Submitted via: ExactAudioCopyFreeDBPlugin 1.0
#
DISCID=a50cae0c,a90cae0c
DTITLE=John Lee Hooker - Chill Out
DYEAR=1995
DGENRE=Blues
TTITLE0=Chill Out (Things Gonna Change) [ft. Carlos Santana]
TTITLE1=Deep Blue Sea
TTITLE2=Kiddio [ft. Charles Brown]
TTITLE3=Serves Me Right To Suffer - Syndicator [ft. Van Morrison, Roy 
TTITLE3=Rogers and Booker T. Jones]
TTITLE4=One Bourbon, One Scotch, One Beer [ft. Roy Rogers]
TTITLE5=Tupelo
TTITLE6=Woman On My Mind
TTITLE7=Annie Mae [ft. Charles Brown]
TTITLE8=Too Young
TTITLE9=Talkin' The Blues [ft. Roy Rogers]
TTITLE10=If You've Never Been In Love [ft. Roy Rogers]
TTITLE11=We'll Meet Again
EXTD=
EXTT0=
EXTT1=
EXTT2=
EXTT3=
EXTT4=
EXTT5=
EXTT6=
EXTT7=
EXTT8=
EXTT9=
EXTT10=
EXTT11=
PLAYORDER=
